<svg xmlns="http://www.w3.org/2000/svg" viewBox="0 0 159 29"><path fill="#fff" d="M32.2 28.5V6.3h-6.9V.5h13.4v27.9h-6.5zm20.3 0V6.3h-8.1V.5h22.8v5.8h-8.1v22.1h-6.6zm31.7.5c-8.5 0-14.9-6.4-14.9-14.5C69.2 6.4 75.8 0 84.2 0c8.6 0 14.9 6.4 14.9 14.5S92.5 29 84.2 29zm0-22.7c-4.5 0-7.9 3.5-7.9 8.2s3.4 8.2 7.9 8.2 7.9-3.5 7.9-8.2-3.4-8.2-7.9-8.2zm36.9 11.5c1.9-.2 7.3-2 7.3-8.4 0-5.8-4.1-8.9-10.9-8.9h-13.2v27.9h6.7V6.3h5.9c2.9 0 4.6 1.3 4.6 3.6s-1.7 3.6-4.6 3.6H111l10.3 14.9h7.5l-7.7-10.6zM.3 28.5h22.1v-5.9H13l4.3-4.6c2.6-2.8 4.4-4.9 4.4-8.9 0-5.6-4.2-9.1-10-9.1C5.4 0 .8 4.5 1.7 11.3h5.9c-.5-3.5 1.1-5.6 3.9-5.6 2.3 0 3.8 1.6 3.8 3.9 0 2.7-2.2 4.7-4.4 7.1L.3 28.5zm150.6-10.7c1.9-.2 7.3-2 7.3-8.4 0-5.8-4.1-8.9-10.9-8.9h-13.2v27.9h6.7V6.3h5.9c2.9 0 4.6 1.3 4.6 3.6s-1.7 3.6-4.6 3.6h-5.9l10.3 14.9h7.5l-7.7-10.6z"></path></svg>
